<svg version="1.1" id="Layer_1" xmlns="http://www.w3.org/2000/svg" xmlns:xlink="http://www.w3.org/1999/xlink" x="0px" y="0px"
	 width="100%" viewBox="0 0 600 530" enable-background="new 0 0 600 530" xml:space="preserve">
<path fill="#010000" opacity="1.000000" stroke="none" 
	d="
M330.000000,1.000000 
	C420.260925,1.000000 510.521851,1.000000 601.000000,1.000000 
	C601.000000,91.687988 601.000000,182.376144 600.630737,273.832336 
	C599.856995,273.238281 599.311768,271.900665 599.070007,270.510254 
	C596.651428,256.600647 594.936401,242.531372 591.765442,228.797501 
	C584.901672,199.069366 572.709961,171.429581 556.972473,145.337753 
	C556.168945,144.005585 554.976135,142.908218 553.964600,141.701538 
	C561.818848,160.395950 567.044922,179.366898 567.775391,199.323654 
	C568.870361,229.238113 554.154907,250.907288 526.845459,260.380646 
	C514.869629,264.534943 502.372742,265.674591 489.882629,264.788818 
	C472.138397,263.530365 454.489868,260.870941 436.741241,259.736420 
	C403.433685,257.607269 372.201599,264.505035 344.238098,283.455536 
	C334.291534,290.196198 325.792175,298.555481 318.367798,308.352295 
	C342.067535,322.894806 365.450500,337.217957 388.796326,351.601379 
	C391.564178,353.306610 394.014282,354.305756 397.530212,353.147827 
	C400.750916,352.087128 404.570618,351.742981 407.892700,352.353821 
	C412.736298,353.244385 415.205414,351.248810 417.996063,347.709198 
	C424.278046,339.741241 429.956604,338.039703 438.473969,342.488464 
	C452.013855,349.560547 465.253876,357.241302 478.350739,365.113831 
	C486.023224,369.725769 490.050995,377.139313 491.552704,385.956116 
	C492.768524,393.094604 496.128357,400.854218 500.337921,406.757019 
	C515.092163,427.445862 519.172180,450.054321 512.117493,474.472473 
	C506.957062,492.334442 501.415985,510.086426 495.917786,528.194702 
	C495.527313,529.334656 495.263641,530.167297 495.000000,531.000000 
	C330.427460,531.000000 165.854904,531.000000 1.000000,531.000000 
	C1.000000,441.645416 1.000000,352.290558 1.359129,262.467072 
	C3.394546,260.726227 5.219005,259.607910 6.724738,258.158508 
	C26.884510,238.752777 46.546158,218.800949 67.257637,200.005249 
	C86.757797,182.308823 110.163361,176.547089 135.949265,182.559540 
	C140.775009,183.684738 144.661652,183.721252 149.127060,181.512344 
	C158.425018,176.912888 168.117004,176.229248 177.334686,181.671677 
	C188.485123,188.255249 199.598465,194.953186 210.305893,202.223145 
	C225.405502,212.475220 226.357239,216.913040 219.105377,232.341019 
	C221.721039,239.000000 224.033081,245.003998 226.464706,250.959152 
	C226.865402,251.940460 227.616653,252.991562 228.498932,253.531952 
	C247.478577,265.156677 266.499969,276.713287 285.490204,288.269012 
	C286.061279,287.829498 286.515228,287.584198 286.833557,287.220306 
	C314.668121,255.400497 350.285492,239.110596 391.821472,234.801987 
	C417.637268,232.124054 442.985199,235.498367 468.047516,241.503448 
	C483.693817,245.252411 499.414520,247.611420 515.499329,245.201935 
	C540.240906,241.495667 554.403931,224.839554 555.137756,199.792084 
	C555.771240,178.167984 550.606628,157.805145 542.382629,138.198425 
	C536.252075,123.582703 531.028809,108.464859 519.685181,96.433273 
	C488.568665,63.429512 452.072235,38.510872 409.946411,21.799273 
	C385.063965,11.928245 359.247803,5.807724 332.676483,2.736834 
	C331.730042,2.627451 330.889771,1.599722 330.000000,1.000000 
M71.154549,254.666168 
	C70.651192,255.526947 70.176170,256.405823 69.640129,257.245728 
	C63.984760,266.106812 64.794640,270.033356 73.672050,275.649658 
	C79.991768,279.647827 86.498001,283.354492 92.769485,287.424683 
	C99.907692,292.057434 100.728859,296.505280 96.278557,303.755554 
	C92.104591,310.555634 87.886787,317.333435 83.910210,324.248627 
	C80.261612,330.593536 81.363602,335.177460 87.438248,339.119904 
	C92.873543,342.647430 98.491119,345.894135 104.028992,349.263550 
	C111.527939,353.826080 116.097946,352.840790 120.731758,345.440277 
	C124.877182,338.819733 128.741623,332.022034 132.936981,325.434326 
	C137.428680,318.381287 141.667160,317.468384 148.794037,321.720581 
	C156.073227,326.063660 163.217728,330.645752 170.622604,334.760773 
	C176.438095,337.992584 180.631943,336.856567 184.271957,331.300232 
	C188.186752,325.324402 191.989899,319.252441 195.437378,312.999481 
	C199.412521,305.789429 197.967224,301.627930 190.763702,297.354126 
	C184.189133,293.453522 177.633926,289.518890 171.116592,285.523529 
	C164.513077,281.475311 163.130264,276.652222 166.970245,269.971466 
	C171.193130,262.624603 175.851822,255.528473 180.083893,248.186630 
	C183.584366,242.113983 182.399643,237.559326 176.465805,233.728806 
	C170.740891,230.033112 164.940964,226.439590 159.037460,223.038132 
	C152.044266,219.008820 147.805740,220.077927 143.534393,226.778534 
	C139.334366,233.367233 135.229553,240.017807 131.159378,246.687836 
	C126.708229,253.982239 121.986687,255.229492 114.522453,250.795334 
	C107.377625,246.550903 100.385872,242.043198 93.171448,237.923325 
	C87.589256,234.735580 82.513786,236.262283 79.118019,241.728577 
	C76.574280,245.823349 74.088768,249.954285 71.154549,254.666168 
M365.874329,403.540710 
	C355.790405,402.499847 347.770630,406.294006 342.442596,414.714691 
	C337.304016,422.835876 337.392578,431.541626 342.372528,439.799622 
	C348.173370,449.418945 359.602692,453.490082 370.161224,450.110107 
	C380.210846,446.893066 387.290314,436.888824 386.850952,426.525238 
	C386.363739,415.033905 378.749084,406.420990 365.874329,403.540710 
M423.044952,488.258392 
	C429.763245,499.505219 442.110626,503.944855 453.448151,499.190186 
	C464.469635,494.568054 470.480652,482.260956 467.305969,470.817322 
	C463.554291,457.293610 449.378937,449.810150 436.219086,454.405945 
	C422.826141,459.083099 416.928192,473.576508 423.044952,488.258392 
M366.767365,472.103516 
	C356.974213,478.261780 352.620819,488.681213 355.505615,499.057465 
	C358.418427,509.534485 367.608917,516.763550 378.196808,516.905945 
	C388.046722,517.038391 397.215942,510.926147 400.889374,501.778961 
	C404.498352,492.792267 402.218109,482.394684 395.147400,475.596436 
	C387.636383,468.374847 377.606232,466.978241 366.767365,472.103516 
M452.071045,414.185791 
	C452.080719,412.689972 452.161469,411.190735 452.088989,409.698914 
	C451.424530,396.020447 439.277496,386.355927 424.734802,387.911072 
	C412.122406,389.259766 402.607727,402.031006 404.692566,414.813019 
	C406.654694,426.842590 415.600586,434.879486 427.461517,435.268433 
	C439.979767,435.678894 449.169830,428.109375 452.071045,414.185791 
z"/>
<path fill="#FEFEFE" opacity="1.000000" stroke="none" 
	d="
M329.531342,1.000000 
	C330.889771,1.599722 331.730042,2.627451 332.676483,2.736834 
	C359.247803,5.807724 385.063965,11.928245 409.946411,21.799273 
	C452.072235,38.510872 488.568665,63.429512 519.685181,96.433273 
	C531.028809,108.464859 536.252075,123.582703 542.382629,138.198425 
	C550.606628,157.805145 555.771240,178.167984 555.137756,199.792084 
	C554.403931,224.839554 540.240906,241.495667 515.499329,245.201935 
	C499.414520,247.611420 483.693817,245.252411 468.047516,241.503448 
	C442.985199,235.498367 417.637268,232.124054 391.821472,234.801987 
	C350.285492,239.110596 314.668121,255.400497 286.833557,287.220306 
	C286.515228,287.584198 286.061279,287.829498 285.490204,288.269012 
	C266.499969,276.713287 247.478577,265.156677 228.498932,253.531952 
	C227.616653,252.991562 226.865402,251.940460 226.464706,250.959152 
	C224.033081,245.003998 221.721039,239.000000 219.105377,232.341019 
	C226.357239,216.913040 225.405502,212.475220 210.305893,202.223145 
	C199.598465,194.953186 188.485123,188.255249 177.334686,181.671677 
	C168.117004,176.229248 158.425018,176.912888 149.127060,181.512344 
	C144.661652,183.721252 140.775009,183.684738 135.949265,182.559540 
	C110.163361,176.547089 86.757797,182.308823 67.257637,200.005249 
	C46.546158,218.800949 26.884510,238.752777 6.724738,258.158508 
	C5.219005,259.607910 3.394546,260.726227 1.359129,261.999207 
	C1.000000,259.299988 1.000000,256.599976 1.353141,253.742615 
	C2.084272,252.893555 2.679559,252.240143 2.809261,251.504623 
	C11.956565,199.630798 32.807838,153.120132 66.153351,112.222038 
	C93.941574,78.139923 127.492775,51.276291 166.852020,31.829279 
	C198.289597,16.296280 231.530060,6.560957 266.478943,2.872622 
	C267.375183,2.778038 268.162109,1.647439 269.000000,1.000003 
	C289.020905,1.000000 309.041779,1.000000 329.531342,1.000000 
z"/>
<path fill="#FEFEFE" opacity="1.000000" stroke="none" 
	d="
M496.044586,527.887451 
	C501.415985,510.086426 506.957062,492.334442 512.117493,474.472473 
	C519.172180,450.054321 515.092163,427.445862 500.337921,406.757019 
	C496.128357,400.854218 492.768524,393.094604 491.552704,385.956116 
	C490.050995,377.139313 486.023224,369.725769 478.350739,365.113831 
	C465.253876,357.241302 452.013855,349.560547 438.473969,342.488464 
	C429.956604,338.039703 424.278046,339.741241 417.996063,347.709198 
	C415.205414,351.248810 412.736298,353.244385 407.892700,352.353821 
	C404.570618,351.742981 400.750916,352.087128 397.530212,353.147827 
	C394.014282,354.305756 391.564178,353.306610 388.796326,351.601379 
	C365.450500,337.217957 342.067535,322.894806 318.367798,308.352295 
	C325.792175,298.555481 334.291534,290.196198 344.238098,283.455536 
	C372.201599,264.505035 403.433685,257.607269 436.741241,259.736420 
	C454.489868,260.870941 472.138397,263.530365 489.882629,264.788818 
	C502.372742,265.674591 514.869629,264.534943 526.845459,260.380646 
	C554.154907,250.907288 568.870361,229.238113 567.775391,199.323654 
	C567.044922,179.366898 561.818848,160.395950 553.964600,141.701538 
	C554.976135,142.908218 556.168945,144.005585 556.972473,145.337753 
	C572.709961,171.429581 584.901672,199.069366 591.765442,228.797501 
	C594.936401,242.531372 596.651428,256.600647 599.070007,270.510254 
	C599.311768,271.900665 599.856995,273.238281 600.630737,274.300201 
	C601.000000,292.687561 601.000000,311.375122 600.631226,330.230682 
	C599.902283,331.261353 599.302246,332.100922 599.216675,332.990021 
	C596.671814,359.432648 590.601685,385.057953 581.022156,409.808563 
	C563.620544,454.769043 536.997009,493.437378 501.128662,525.678894 
	C499.825317,526.850464 497.756622,527.170593 496.044586,527.887451 
z"/>
<path fill="#010101" opacity="1.000000" stroke="none" 
	d="
M268.531342,1.000003 
	C268.162109,1.647439 267.375183,2.778038 266.478943,2.872622 
	C231.530060,6.560957 198.289597,16.296280 166.852020,31.829279 
	C127.492775,51.276291 93.941574,78.139923 66.153351,112.222038 
	C32.807838,153.120132 11.956565,199.630798 2.809261,251.504623 
	C2.679559,252.240143 2.084272,252.893555 1.353141,253.292633 
	C1.000000,169.070724 1.000000,85.141441 1.000000,1.000000 
	C90.020782,1.000000 179.041733,1.000000 268.531342,1.000003 
z"/>
<path fill="#010101" opacity="1.000000" stroke="none" 
	d="
M495.917786,528.194702 
	C497.756622,527.170593 499.825317,526.850464 501.128662,525.678894 
	C536.997009,493.437378 563.620544,454.769043 581.022156,409.808563 
	C590.601685,385.057953 596.671814,359.432648 599.216675,332.990021 
	C599.302246,332.100922 599.902283,331.261353 600.631226,330.699341 
	C601.000000,397.571228 601.000000,464.142456 601.000000,531.000000 
	C565.979614,531.000000 530.958496,531.000000 495.468628,531.000000 
	C495.263641,530.167297 495.527313,529.334656 495.917786,528.194702 
z"/>
<path fill="#DB0000" opacity="1.000000" stroke="none" 
	d="
M71.365936,254.367645 
	C74.088768,249.954285 76.574280,245.823349 79.118019,241.728577 
	C82.513786,236.262283 87.589256,234.735580 93.171448,237.923325 
	C100.385872,242.043198 107.377625,246.550903 114.522453,250.795334 
	C121.986687,255.229492 126.708229,253.982239 131.159378,246.687836 
	C135.229553,240.017807 139.334366,233.367233 143.534393,226.778534 
	C147.805740,220.077927 152.044266,219.008820 159.037460,223.038132 
	C164.940964,226.439590 170.740891,230.033112 176.465805,233.728806 
	C182.399643,237.559326 183.584366,242.113983 180.083893,248.186630 
	C175.851822,255.528473 171.193130,262.624603 166.970245,269.971466 
	C163.130264,276.652222 164.513077,281.475311 171.116592,285.523529 
	C177.633926,289.518890 184.189133,293.453522 190.763702,297.354126 
	C197.967224,301.627930 199.412521,305.789429 195.437378,312.999481 
	C191.989899,319.252441 188.186752,325.324402 184.271957,331.300232 
	C180.631943,336.856567 176.438095,337.992584 170.622604,334.760773 
	C163.217728,330.645752 156.073227,326.063660 148.794037,321.720581 
	C141.667160,317.468384 137.428680,318.381287 132.936981,325.434326 
	C128.741623,332.022034 124.877182,338.819733 120.731758,345.440277 
	C116.097946,352.840790 111.527939,353.826080 104.028992,349.263550 
	C98.491119,345.894135 92.873543,342.647430 87.438248,339.119904 
	C81.363602,335.177460 80.261612,330.593536 83.910210,324.248627 
	C87.886787,317.333435 92.104591,310.555634 96.278557,303.755554 
	C100.728859,296.505280 99.907692,292.057434 92.769485,287.424683 
	C86.498001,283.354492 79.991768,279.647827 73.672050,275.649658 
	C64.794640,270.033356 63.984760,266.106812 69.640129,257.245728 
	C70.176170,256.405823 70.651192,255.526947 71.365936,254.367645 
z"/>
<path fill="#D90000" opacity="1.000000" stroke="none" 
	d="
M366.278259,403.626556 
	C378.749084,406.420990 386.363739,415.033905 386.850952,426.525238 
	C387.290314,436.888824 380.210846,446.893066 370.161224,450.110107 
	C359.602692,453.490082 348.173370,449.418945 342.372528,439.799622 
	C337.392578,431.541626 337.304016,422.835876 342.442596,414.714691 
	C347.770630,406.294006 355.790405,402.499847 366.278259,403.626556 
z"/>
<path fill="#DA0000" opacity="1.000000" stroke="none" 
	d="
M422.882874,487.917358 
	C416.928192,473.576508 422.826141,459.083099 436.219086,454.405945 
	C449.378937,449.810150 463.554291,457.293610 467.305969,470.817322 
	C470.480652,482.260956 464.469635,494.568054 453.448151,499.190186 
	C442.110626,503.944855 429.763245,499.505219 422.882874,487.917358 
z"/>
<path fill="#D90000" opacity="1.000000" stroke="none" 
	d="
M367.094666,471.919678 
	C377.606232,466.978241 387.636383,468.374847 395.147400,475.596436 
	C402.218109,482.394684 404.498352,492.792267 400.889374,501.778961 
	C397.215942,510.926147 388.046722,517.038391 378.196808,516.905945 
	C367.608917,516.763550 358.418427,509.534485 355.505615,499.057465 
	C352.620819,488.681213 356.974213,478.261780 367.094666,471.919678 
z"/>
<path fill="#DA0000" opacity="1.000000" stroke="none" 
	d="
M452.030304,414.625610 
	C449.169830,428.109375 439.979767,435.678894 427.461517,435.268433 
	C415.600586,434.879486 406.654694,426.842590 404.692566,414.813019 
	C402.607727,402.031006 412.122406,389.259766 424.734802,387.911072 
	C439.277496,386.355927 451.424530,396.020447 452.088989,409.698914 
	C452.161469,411.190735 452.080719,412.689972 452.030304,414.625610 
z"/>
</svg>